<svg width="280" height="67" viewBox="0 0 280 67" fill="none" xmlns="http://www.w3.org/2000/svg">
<path d="M68 63V3.00002C66.8838 0.2336 65.692 -0.104913 63 0.500019C60.6863 2.07008 52.8336 5.67753 50 8.49525C49.4602 9.03201 49.1026 9.54012 49 10V57C49.2254 57.4945 49.4223 57.725 50 58L63 66.5C66.7414 67.2468 68.0157 66.6945 68 63Z" fill="#F2AE31"/>
<path d="M0.000142137 62.7545V2.75454C1.11639 -0.0118833 2.30813 -0.350396 5.00014 0.254535C7.31391 1.82459 15.1665 5.43205 18.0001 8.24976C18.5399 8.78653 18.8976 9.29463 19.0001 9.75453V56.7545C18.7748 57.249 18.5778 57.4795 18.0001 57.7545L5.00014 66.2545C1.25879 67.0013 -0.0155077 66.449 0.000142137 62.7545Z" fill="#F2AE31"/>
<path d="M41 53.5L27.5 23.5C25.6155 20.4315 24.6406 20.6831 23 23.5V53.5C23.0528 56.5378 23.6998 57.5429 26.5 57.4999H39.5C42.2228 57.506 42.3035 56.4484 41 53.5Z" fill="#F2AE31"/>
<path d="M26.8192 13.0013L40.3192 43.0013C42.2038 46.0698 43.1786 45.8182 44.8192 43.0013V13.0013C44.7665 9.96347 44.1194 8.95836 41.3192 9.0013H28.3192C25.5965 8.9953 25.5158 10.0529 26.8192 13.0013Z" fill="#F2AE31"/>
<path d="M101.132 48H96.344L81.938 26.202V48H77.15V18.768H81.938L96.344 40.524V18.768H101.132V48Z" fill="#F2AE31"/>
<path d="M110.024 36.324C110.024 34 110.5 31.942 111.452 30.15C112.432 28.358 113.748 26.972 115.4 25.992C117.08 24.984 118.928 24.48 120.944 24.48C122.764 24.48 124.346 24.844 125.69 25.572C127.062 26.272 128.154 27.154 128.966 28.218V24.858H133.796V48H128.966V44.556C128.154 45.648 127.048 46.558 125.648 47.286C124.248 48.014 122.652 48.378 120.86 48.378C118.872 48.378 117.052 47.874 115.4 46.866C113.748 45.83 112.432 44.402 111.452 42.582C110.5 40.734 110.024 38.648 110.024 36.324ZM128.966 36.408C128.966 34.812 128.63 33.426 127.958 32.25C127.314 31.074 126.46 30.178 125.396 29.562C124.332 28.946 123.184 28.638 121.952 28.638C120.72 28.638 119.572 28.946 118.508 29.562C117.444 30.15 116.576 31.032 115.904 32.208C115.26 33.356 114.938 34.728 114.938 36.324C114.938 37.92 115.26 39.32 115.904 40.524C116.576 41.728 117.444 42.652 118.508 43.296C119.6 43.912 120.748 44.22 121.952 44.22C123.184 44.22 124.332 43.912 125.396 43.296C126.46 42.68 127.314 41.784 127.958 40.608C128.63 39.404 128.966 38.004 128.966 36.408Z" fill="#F2AE31"/>
<path d="M153.44 36.45L164.108 48H157.64L149.072 38.046V48H144.284V16.92H149.072V34.98L157.472 24.858H164.108L153.44 36.45Z" fill="#F2AE31"/>
<path d="M180.896 36.45L191.564 48H185.096L176.528 38.046V48H171.74V16.92H176.528V34.98L184.928 24.858H191.564L180.896 36.45Z" fill="#F2AE31"/>
<path d="M207.596 48.378C205.776 48.378 204.138 48.056 202.682 47.412C201.254 46.74 200.12 45.844 199.28 44.724C198.44 43.576 197.992 42.302 197.936 40.902H202.892C202.976 41.882 203.438 42.708 204.278 43.38C205.146 44.024 206.224 44.346 207.512 44.346C208.856 44.346 209.892 44.094 210.62 43.59C211.376 43.058 211.754 42.386 211.754 41.574C211.754 40.706 211.334 40.062 210.494 39.642C209.682 39.222 208.38 38.76 206.588 38.256C204.852 37.78 203.438 37.318 202.346 36.87C201.254 36.422 200.302 35.736 199.49 34.812C198.706 33.888 198.314 32.67 198.314 31.158C198.314 29.926 198.678 28.806 199.406 27.798C200.134 26.762 201.17 25.95 202.514 25.362C203.886 24.774 205.454 24.48 207.218 24.48C209.85 24.48 211.964 25.152 213.56 26.496C215.184 27.812 216.052 29.618 216.164 31.914H211.376C211.292 30.878 210.872 30.052 210.116 29.436C209.36 28.82 208.338 28.512 207.05 28.512C205.79 28.512 204.824 28.75 204.152 29.226C203.48 29.702 203.144 30.332 203.144 31.116C203.144 31.732 203.368 32.25 203.816 32.67C204.264 33.09 204.81 33.426 205.454 33.678C206.098 33.902 207.05 34.196 208.31 34.56C209.99 35.008 211.362 35.47 212.426 35.946C213.518 36.394 214.456 37.066 215.24 37.962C216.024 38.858 216.43 40.048 216.458 41.532C216.458 42.848 216.094 44.024 215.366 45.06C214.638 46.096 213.602 46.908 212.258 47.496C210.942 48.084 209.388 48.378 207.596 48.378Z" fill="#F2AE31"/>
<path d="M237.802 24.48C239.566 24.48 241.134 24.858 242.506 25.614C243.906 26.37 244.998 27.49 245.782 28.974C246.594 30.458 247 32.25 247 34.35V48H242.254V35.064C242.254 32.992 241.736 31.41 240.7 30.318C239.664 29.198 238.25 28.638 236.458 28.638C234.666 28.638 233.238 29.198 232.174 30.318C231.138 31.41 230.62 32.992 230.62 35.064V48H225.832V16.92H230.62V27.546C231.432 26.566 232.454 25.81 233.686 25.278C234.946 24.746 236.318 24.48 237.802 24.48Z" fill="#F2AE31"/>
<path d="M255.711 36.324C255.711 34 256.187 31.942 257.139 30.15C258.119 28.358 259.435 26.972 261.087 25.992C262.767 24.984 264.615 24.48 266.631 24.48C268.451 24.48 270.033 24.844 271.377 25.572C272.749 26.272 273.841 27.154 274.653 28.218V24.858H279.483V48H274.653V44.556C273.841 45.648 272.735 46.558 271.335 47.286C269.935 48.014 268.339 48.378 266.547 48.378C264.559 48.378 262.739 47.874 261.087 46.866C259.435 45.83 258.119 44.402 257.139 42.582C256.187 40.734 255.711 38.648 255.711 36.324ZM274.653 36.408C274.653 34.812 274.317 33.426 273.645 32.25C273.001 31.074 272.147 30.178 271.083 29.562C270.019 28.946 268.871 28.638 267.639 28.638C266.407 28.638 265.259 28.946 264.195 29.562C263.131 30.15 262.263 31.032 261.591 32.208C260.947 33.356 260.625 34.728 260.625 36.324C260.625 37.92 260.947 39.32 261.591 40.524C262.263 41.728 263.131 42.652 264.195 43.296C265.287 43.912 266.435 44.22 267.639 44.22C268.871 44.22 270.019 43.912 271.083 43.296C272.147 42.68 273.001 41.784 273.645 40.608C274.317 39.404 274.653 38.004 274.653 36.408Z" fill="#F2AE31"/>
</svg>
